<svg width="24" height="24" viewBox="0 0 24 24" fill="none" xmlns="http://www.w3.org/2000/svg">
<g clip-path="url(#clip0_6_4)">
<path d="M14.8088 24.5H10.1912C9.8834 24.5 9.6166 24.4 9.39086 24.2C9.16511 24 9.03172 23.75 8.99067 23.45L8.62127 20.66C8.35448 20.56 8.10328 20.44 7.86769 20.3C7.63127 20.16 7.40019 20.01 7.17444 19.85L4.49627 20.93C4.20896 21.03 3.92164 21.04 3.63433 20.96C3.34702 20.88 3.12127 20.71 2.95709 20.45L0.679104 16.58C0.514925 16.32 0.463619 16.04 0.525187 15.74C0.586754 15.44 0.740672 15.2 0.98694 15.02L3.29571 13.31C3.27519 13.17 3.26493 13.0348 3.26493 12.9044V12.0944C3.26493 11.9648 3.27519 11.83 3.29571 11.69L0.98694 9.98C0.740672 9.8 0.586754 9.56 0.525187 9.26C0.463619 8.96 0.514925 8.68 0.679104 8.42L2.95709 4.55C3.10075 4.27 3.32116 4.0948 3.61832 4.0244C3.91631 3.9548 4.20896 3.97 4.49627 4.07L7.17444 5.15C7.40019 4.99 7.63619 4.84 7.88246 4.7C8.12873 4.56 8.375 4.44 8.62127 4.34L8.99067 1.55C9.03172 1.25 9.16511 1 9.39086 0.8C9.6166 0.6 9.8834 0.5 10.1912 0.5H14.8088C15.1166 0.5 15.3834 0.6 15.6091 0.8C15.8349 1 15.9683 1.25 16.0093 1.55L16.3787 4.34C16.6455 4.44 16.8971 4.56 17.1335 4.7C17.3691 4.84 17.5998 4.99 17.8256 5.15L20.5037 4.07C20.791 3.97 21.0784 3.96 21.3657 4.04C21.653 4.12 21.8787 4.29 22.0429 4.55L24.3209 8.42C24.4851 8.68 24.5364 8.96 24.4748 9.26C24.4132 9.56 24.2593 9.8 24.0131 9.98L21.7043 11.69C21.7248 11.83 21.7351 11.9648 21.7351 12.0944V12.9044C21.7351 13.0348 21.7146 13.17 21.6735 13.31L23.9823 15.02C24.2285 15.2 24.3825 15.44 24.444 15.74C24.5056 16.04 24.4543 16.32 24.2901 16.58L22.0121 20.42C21.8479 20.68 21.6173 20.8552 21.3201 20.9456C21.0221 21.0352 20.7295 21.03 20.4422 20.93L17.8256 19.85C17.5998 20.01 17.3638 20.16 17.1175 20.3C16.8713 20.44 16.625 20.56 16.3787 20.66L16.0093 23.45C15.9683 23.75 15.8349 24 15.6091 24.2C15.3834 24.4 15.1166 24.5 14.8088 24.5ZM12.5616 16.7C13.7519 16.7 14.7677 16.29 15.6091 15.47C16.4506 14.65 16.8713 13.66 16.8713 12.5C16.8713 11.34 16.4506 10.35 15.6091 9.53C14.7677 8.71 13.7519 8.3 12.5616 8.3C11.3507 8.3 10.3296 8.71 9.49798 9.53C8.66724 10.35 8.25187 11.34 8.25187 12.5C8.25187 13.66 8.66724 14.65 9.49798 15.47C10.3296 16.29 11.3507 16.7 12.5616 16.7Z" fill="black"/>
</g>
<defs>
<clipPath id="clip0_6_4">
<rect width="24" height="24" fill="white"/>
</clipPath>
</defs>
</svg>
